<svg width="25" height="24" viewBox="0 0 25 24" fill="none" xmlns="http://www.w3.org/2000/svg">
<circle cx="12.5" cy="12" r="12" fill="#EC0B1B"/>
<path d="M14.8728 12.1315L16.7718 10.2325C17.0611 9.92993 17.2205 9.52609 17.2158 9.10747C17.2111 8.68884 17.0427 8.28868 16.7467 7.99265C16.4507 7.69662 16.0505 7.52823 15.6319 7.52354C15.2132 7.51884 14.8094 7.67821 14.5068 7.96753L12.6078 9.86653L10.6998 7.96753C10.3972 7.67821 9.99338 7.51884 9.57475 7.52354C9.15612 7.52823 8.75597 7.69662 8.45994 7.99265C8.1639 8.28868 7.99552 8.68884 7.99082 9.10747C7.98613 9.52609 8.14549 9.92993 8.43481 10.2325L10.3338 12.1315L8.43481 14.0305C8.14549 14.3331 7.98613 14.737 7.99082 15.1556C7.99552 15.5742 8.1639 15.9744 8.45994 16.2704C8.75597 16.5664 9.15612 16.7348 9.57475 16.7395C9.99338 16.7442 10.3972 16.5848 10.6998 16.2955L12.5988 14.3965L14.4978 16.2955C14.8004 16.5848 15.2042 16.7442 15.6229 16.7395C16.0415 16.7348 16.4417 16.5664 16.7377 16.2704C17.0337 15.9744 17.2021 15.5742 17.2068 15.1556C17.2115 14.737 17.0521 14.3331 16.7628 14.0305L14.8728 12.1315Z" fill="#F7F7F7"/>
</svg>
